<svg width="26" height="26" viewBox="0 0 26 26" fill="none" xmlns="http://www.w3.org/2000/svg">
<path d="M22.2864 5.3649V12.794C23.9991 12.794 25.3817 11.4114 25.3817 9.69865L25.3819 0H0.619141V9.69865C0.619141 11.4114 2.00172 12.794 3.71444 12.794L3.71464 5.3649H22.2864Z" fill="#155DFC"/>
<path d="M22.2862 12.7963C20.5735 12.7963 19.1909 11.4137 19.1909 9.70101C19.1909 11.4137 17.8084 12.7963 16.0956 12.7963C15.2908 12.7963 14.548 12.4869 13.9908 11.971H13.1654C12.5052 11.971 11.9686 12.5075 11.9686 13.1678C11.9686 13.5393 12.1337 13.8695 12.4227 14.0964L14.8784 16.0567C15.6625 16.6758 16.0959 17.6044 16.0959 18.5949C16.0959 19.9775 15.2292 21.1537 14.0324 21.6284L14.0322 23.9395H11.9687V21.876H9.90496V19.8125H12.8352C13.4955 19.8125 14.032 19.2759 14.032 18.6157C14.032 18.2442 13.867 17.914 13.578 17.6871L11.1223 15.7268C10.3381 15.1076 9.90474 14.1791 9.90474 13.1885C9.90474 13.0646 9.90474 12.9409 9.92543 12.817C11.6179 12.7756 13.0004 11.3931 13.0004 9.70101C13.0004 10.5884 13.3924 11.393 13.9911 11.971H16.0958V9.90726H14.0323V7.84375H11.9688V10.1344C10.8752 10.5677 10.091 11.5583 9.9259 12.7552C9.9257 12.7756 9.90501 12.7963 9.90501 12.7963C8.19229 12.7963 6.80972 11.4137 6.80972 9.70102C6.80972 11.4137 5.42714 12.7963 3.71442 12.7963V23.9394H0V26.0029H26.0011V23.9394H22.2867L22.2862 12.7963Z" fill="#155DFC"/>
</svg>
